# xmcd
#
# Track frame offsets:
# 150
# 16806
# 48726
# 68319
# 88164
#
# Disc length: 1424 seconds
#
#
# Revision: 0
# Processed by: cddbd v1.5.2PL0 Copyright (c) Steve Scherf et al.
# Submitted via: FreeRIP 2.943 
#
DISCID=35058e05
DTITLE=melvins - the bulls and the bees [ep]
DYEAR=2012
DGENRE=Heavy Metal
TTITLE0=the war on wisdom
TTITLE1=we are doomed
TTITLE2=friends before larry
TTITLE3=a really long wait
TTITLE4=national hamster
EXTD=
EXTT0=
EXTT1=
EXTT2=
EXTT3=
EXTT4=
PLAYORDER=
